<?xml version="1.0" encoding="UTF-8" standalone="no"?>
<!DOCTYPE svg PUBLIC "-//W3C//DTD SVG 1.1//EN"
 "http://www.w3.org/Graphics/SVG/1.1/DTD/svg11.dtd">
<!-- Generated by graphviz version 2.36.0 (20140111.2315)
 -->
<!-- Title: g Pages: 1 -->
<svg width="559pt" height="244pt"
 viewBox="0.00 0.00 558.50 244.00" xmlns="http://www.w3.org/2000/svg" xmlns:xlink="http://www.w3.org/1999/xlink">
<g id="graph0" class="graph" transform="scale(1 1) rotate(0) translate(4 240)">
<title>g</title>
<polygon fill="white" stroke="none" points="-4,4 -4,-240 554.5,-240 554.5,4 -4,4"/>
<!-- ENTRY -->
<g id="node1" class="node"><title>ENTRY</title>
<ellipse fill="black" stroke="black" cx="2" cy="-102" rx="1.8" ry="1.8"/>
</g>
<!-- 0 -->
<g id="node2" class="node"><title>0</title>
<ellipse fill="none" stroke="black" cx="111" cy="-102" rx="16.9412" ry="16.9412"/>
<text text-anchor="middle" x="111" y="-98.3" font-family="Ubuntu Mono" font-size="14.00">0</text>
</g>
<!-- ENTRY&#45;&gt;0 -->
<g id="edge1" class="edge"><title>ENTRY&#45;&gt;0</title>
<path fill="none" stroke="black" d="M4.20166,-102C11.8973,-102 54.8584,-102 83.614,-102"/>
<polygon fill="black" stroke="black" points="83.8362,-102 83.8362,-105.5 93.8362,-102 83.8362,-102"/>
<text text-anchor="middle" x="49" y="-105.8" font-family="Ubuntu Mono" font-size="14.00">(input)</text>
</g>
<!-- 1 -->
<g id="node3" class="node"><title>1</title>
<ellipse fill="lightgrey" stroke="black" cx="245" cy="-152" rx="16.9412" ry="16.9412"/>
<text text-anchor="middle" x="245" y="-148.3" font-family="Ubuntu Mono" font-size="14.00">1</text>
</g>
<!-- 0&#45;&gt;1 -->
<g id="edge2" class="edge"><title>0&#45;&gt;1</title>
<path fill="none" stroke="black" d="M126.845,-108.258C132.782,-110.722 139.695,-113.545 146,-116 170.739,-125.633 199.25,-136.028 219.118,-143.159"/>
<polygon fill="black" stroke="black" points="219.238,-143.202 218.059,-146.498 228.654,-146.57 219.238,-143.202"/>
<text text-anchor="middle" x="177" y="-142.8" font-family="Ubuntu Mono" font-size="14.00">[0]</text>
</g>
<!-- 2 -->
<g id="node4" class="node"><title>2</title>
<ellipse fill="lightgrey" stroke="black" cx="355" cy="-102" rx="16.9412" ry="16.9412"/>
<text text-anchor="middle" x="355" y="-98.3" font-family="Ubuntu Mono" font-size="14.00">2</text>
</g>
<!-- 0&#45;&gt;2 -->
<g id="edge3" class="edge"><title>0&#45;&gt;2</title>
<path fill="none" stroke="black" d="M128.254,-102C169.326,-102 277.568,-102 327.756,-102"/>
<polygon fill="black" stroke="black" points="327.817,-102 327.817,-105.5 337.817,-102 327.817,-102"/>
<text text-anchor="middle" x="245" y="-105.8" font-family="Ubuntu Mono" font-size="14.00">[1&#45;9]</text>
</g>
<!-- 5 -->
<g id="node5" class="node"><title>5</title>
<ellipse fill="lightgrey" stroke="black" cx="245" cy="-16" rx="16.9412" ry="16.9412"/>
<text text-anchor="middle" x="245" y="-12.3" font-family="Ubuntu Mono" font-size="14.00">5</text>
</g>
<!-- 0&#45;&gt;5 -->
<g id="edge4" class="edge"><title>0&#45;&gt;5</title>
<path fill="none" stroke="black" d="M123.847,-90.9795C130.194,-85.3154 138.277,-78.4726 146,-73 170.4,-55.7094 200.357,-38.8647 220.68,-28.0273"/>
<polygon fill="black" stroke="black" points="220.704,-28.0147 222.336,-31.111 229.551,-23.3523 220.704,-28.0147"/>
<text text-anchor="middle" x="177" y="-76.8" font-family="Ubuntu Mono" font-size="14.00">[A&#45;Za&#45;z]</text>
</g>
<!-- 1&#45;&gt;2 -->
<g id="edge5" class="edge"><title>1&#45;&gt;2</title>
<path fill="none" stroke="black" d="M260.565,-145.257C278.36,-137.019 308.716,-122.965 329.985,-113.118"/>
<polygon fill="black" stroke="black" points="330.246,-112.997 331.716,-116.174 339.32,-108.796 330.246,-112.997"/>
<text text-anchor="middle" x="301" y="-138.8" font-family="Ubuntu Mono" font-size="14.00">[0&#45;9]</text>
</g>
<!-- 3 -->
<g id="node6" class="node"><title>3</title>
<ellipse fill="none" stroke="black" cx="355" cy="-187" rx="16.9412" ry="16.9412"/>
<text text-anchor="middle" x="355" y="-183.3" font-family="Ubuntu Mono" font-size="14.00">3</text>
</g>
<!-- 1&#45;&gt;3 -->
<g id="edge6" class="edge"><title>1&#45;&gt;3</title>
<path fill="none" stroke="black" d="M261.474,-157.015C279.037,-162.707 307.946,-172.075 328.78,-178.827"/>
<polygon fill="black" stroke="black" points="329.042,-178.912 327.963,-182.241 338.555,-181.995 329.042,-178.912"/>
<text text-anchor="middle" x="301" y="-179.8" font-family="Ubuntu Mono" font-size="14.00">[x]</text>
</g>
<!-- 2&#45;&gt;2 -->
<g id="edge7" class="edge"><title>2&#45;&gt;2</title>
<path fill="none" stroke="black" d="M345.965,-115.97C343.024,-126.004 346.035,-136 355,-136 360.743,-136 364.043,-131.898 364.9,-126.311"/>
<polygon fill="black" stroke="black" points="364.868,-125.935 368.356,-125.643 364.035,-115.97 364.868,-125.935"/>
<text text-anchor="middle" x="355" y="-139.8" font-family="Ubuntu Mono" font-size="14.00">[0&#45;9]</text>
</g>
<!-- 5&#45;&gt;5 -->
<g id="edge10" class="edge"><title>5&#45;&gt;5</title>
<path fill="none" stroke="black" d="M235.63,-29.9699C232.58,-40.0045 235.703,-50 245,-50 250.956,-50 254.378,-45.8978 255.266,-40.3112"/>
<polygon fill="black" stroke="black" points="255.234,-39.9325 258.721,-39.6301 254.37,-29.9699 255.234,-39.9325"/>
<text text-anchor="middle" x="245" y="-53.8" font-family="Ubuntu Mono" font-size="14.00">[0&#45;9A&#45;Za&#45;z]</text>
</g>
<!-- 4 -->
<g id="node7" class="node"><title>4</title>
<ellipse fill="lightgrey" stroke="black" cx="509" cy="-187" rx="16.9412" ry="16.9412"/>
<text text-anchor="middle" x="509" y="-183.3" font-family="Ubuntu Mono" font-size="14.00">4</text>
</g>
<!-- 3&#45;&gt;4 -->
<g id="edge8" class="edge"><title>3&#45;&gt;4</title>
<path fill="none" stroke="black" d="M371.979,-187C398.025,-187 449.892,-187 481.513,-187"/>
<polygon fill="black" stroke="black" points="481.777,-187 481.777,-190.5 491.777,-187 481.777,-187"/>
<text text-anchor="middle" x="432" y="-190.8" font-family="Ubuntu Mono" font-size="14.00">[0&#45;9A&#45;Fa&#45;f]</text>
</g>
<!-- 4&#45;&gt;4 -->
<g id="edge9" class="edge"><title>4&#45;&gt;4</title>
<path fill="none" stroke="black" d="M497.102,-199.201C491.675,-209.794 495.641,-221 509,-221 518.185,-221 522.929,-215.703 523.234,-208.951"/>
<polygon fill="black" stroke="black" points="523.228,-208.925 526.632,-208.11 520.898,-199.201 523.228,-208.925"/>
<text text-anchor="middle" x="509" y="-224.8" font-family="Ubuntu Mono" font-size="14.00">[0&#45;9A&#45;Fa&#45;f]</text>
</g>
</g>
</svg>
